<svg xmlns="http://www.w3.org/2000/svg"  viewBox="0 0 100 100" width="50px" height="50px"><path fill="#ee3e54" d="M13,27c-1.105,0-2,0.895-2,2s0.895,2,2,2s2-0.895,2-2S14.105,27,13,27z"/><path fill="#f1bc19" d="M77,12c-0.552,0-1,0.448-1,1s0.448,1,1,1s1-0.448,1-1S77.552,12,77,12z"/><path fill="#fce0a2" d="M50,13c-20.435,0-37,16.565-37,37s16.565,37,37,37s37-16.565,37-37S70.435,13,50,13z"/><path fill="#f1bc19" d="M83,11c-2.209,0-4,1.791-4,4s1.791,4,4,4s4-1.791,4-4S85.209,11,83,11z"/><path fill="#ee3e54" d="M87,22c-1.105,0-2,0.895-2,2s0.895,2,2,2s2-0.895,2-2S88.105,22,87,22z"/><path fill="#fbcd59" d="M81,74c-1.105,0-2,0.895-2,2s0.895,2,2,2s2-0.895,2-2S82.105,74,81,74z M15,59c-2.209,0-4,1.791-4,4 c0,2.209,1.791,4,4,4s4-1.791,4-4C19,60.791,17.209,59,15,59z"/><path fill="#ee3e54" d="M25,85c-1.105,0-2,0.895-2,2s0.895,2,2,2s2-0.895,2-2S26.105,85,25,85z"/><path fill="#fff" d="M18.5,51c-1.381,0-2.5,1.119-2.5,2.5s1.119,2.5,2.5,2.5s2.5-1.119,2.5-2.5S19.881,51,18.5,51z"/><path fill="#f1bc19" d="M21,66c-0.552,0-1,0.448-1,1s0.448,1,1,1s1-0.448,1-1S21.552,66,21,66z"/><path fill="#fff" d="M80,33c-0.552,0-1,0.448-1,1s0.448,1,1,1s1-0.448,1-1S80.552,33,80,33z"/><path fill="#e1e0d8" d="M27,65.337V34.663C27,30.431,30.431,27,34.663,27h30.675c4.232,0,7.662,3.431,7.662,7.662v30.675 c0,4.232-3.431,7.662-7.662,7.662H34.663C30.431,72.999,27,69.569,27,65.337z"/><path fill="#48cc5f" d="M65.375,72.876C69.152,72.184,72,69.099,72,65.395v-3.826h-6.625V72.876z"/><rect width="6.625" height="11.632" x="65.375" y="50" fill="#f5921e"/><rect width="11.475" height="6.625" x="62.949" y="40.95" fill="#55a7f9" transform="rotate(-89.645 68.689 44.26)"/><path fill="#b2b0a6" d="M72,34.583c0-3.693-2.848-6.769-6.625-7.459v11.274H72V34.583z"/><path fill="#b2b0a6" d="M47,62.5c3.634,0,6.895-1.56,9.179-4.035c-0.075-0.137-2.3-4.09-9.179-4.09s-9.104,3.953-9.179,4.089	C40.105,60.94,43.366,62.5,47,62.5z"/><path fill="#b2b0a6" d="M47,42.375c-2.412,0-4.375,2.075-4.375,4.625s1.963,4.625,4.375,4.625S51.375,49.55,51.375,47	S49.412,42.375,47,42.375z"/><rect width=".75" height="44" x="65" y="28" fill="#472b29"/><rect width="6.625" height=".75" x="65.375" y="38.125" fill="#472b29"/><rect width="6.625" height=".75" x="65.375" y="50" fill="#472b29"/><rect width="6.625" height=".75" x="65.375" y="61.118" fill="#472b29"/><path fill="#472b29" d="M47,63c-7.168,0-13-5.832-13-13s5.832-13,13-13s13,5.832,13,13S54.168,63,47,63z M47,38	c-6.617,0-12,5.383-12,12s5.383,12,12,12s12-5.383,12-12S53.617,38,47,38z"/><path fill="#472b29" d="M47,52c-2.619,0-4.75-2.243-4.75-5s2.131-5,4.75-5s4.75,2.243,4.75,5S49.619,52,47,52z M47,42.75	c-2.206,0-4,1.907-4,4.25s1.794,4.25,4,4.25s4-1.907,4-4.25S49.206,42.75,47,42.75z"/><path fill="#472b29" d="M55.85,58.644c-0.087-0.159-2.198-3.894-8.85-3.894c-6.659,0-8.763,3.734-8.85,3.893l-0.658-0.357	C37.587,58.11,39.899,54,47,54c7.092,0,9.413,4.11,9.508,4.285L55.85,58.644z"/><g><path fill="#472b29" d="M65.338,28.4c3.453,0,6.262,2.809,6.262,6.262v30.675c0,3.453-2.809,6.262-6.262,6.262H34.663 C31.21,71.6,28.4,68.79,28.4,65.337V34.663c0-3.453,2.809-6.262,6.262-6.262H65.338 M65.338,27.001H34.663 c-4.232,0-7.662,3.431-7.662,7.662v30.674c0,4.232,3.431,7.662,7.662,7.664h30.675c4.232,0,7.662-3.431,7.662-7.662V34.663 C73.001,30.431,69.57,27.001,65.338,27.001L65.338,27.001z"/></g></svg>